<?xml version="1.0" encoding="UTF-8" standalone="no"?>
<!-- Created with Inkscape (http://www.inkscape.org/) -->

<svg
   xmlns:dc="http://purl.org/dc/elements/1.1/"
   xmlns:cc="http://creativecommons.org/ns#"
   xmlns:rdf="http://www.w3.org/1999/02/22-rdf-syntax-ns#"
   xmlns:svg="http://www.w3.org/2000/svg"
   xmlns="http://www.w3.org/2000/svg"
   xmlns:xlink="http://www.w3.org/1999/xlink"
   xmlns:sodipodi="http://sodipodi.sourceforge.net/DTD/sodipodi-0.dtd"
   xmlns:inkscape="http://www.inkscape.org/namespaces/inkscape"
   width="154.86559mm"
   height="185.13307mm"
   id="svg2"
   version="1.1"
   inkscape:version="0.92.3 (2405546, 2018-03-11)"
   sodipodi:docname="Vim-begin-logo.svg">
  <defs
     id="defs4">
    <inkscape:perspective
       sodipodi:type="inkscape:persp3d"
       inkscape:vp_x="0 : 0.5 : 1"
       inkscape:vp_y="0 : 1000 : 0"
       inkscape:vp_z="1 : 0.5 : 1"
       inkscape:persp3d-origin="0.5 : 0.33333333 : 1"
       id="perspective2824" />
    <inkscape:perspective
       id="perspective10"
       inkscape:persp3d-origin="372.04724 : 350.78739 : 1"
       inkscape:vp_z="744.09448 : 526.18109 : 1"
       inkscape:vp_y="0 : 1000 : 0"
       inkscape:vp_x="0 : 526.18109 : 1"
       sodipodi:type="inkscape:persp3d" />
  </defs>
  <sodipodi:namedview
     id="base"
     pagecolor="#ffffff"
     bordercolor="#666666"
     borderopacity="1.0"
     inkscape:pageopacity="0.0"
     inkscape:pageshadow="2"
     inkscape:zoom="0.35"
     inkscape:cx="290.51653"
     inkscape:cy="347.77788"
     inkscape:document-units="px"
     inkscape:current-layer="layer1"
     showgrid="false"
     inkscape:window-width="1196"
     inkscape:window-height="844"
     inkscape:window-x="201"
     inkscape:window-y="148"
     inkscape:window-maximized="0"
     units="mm"
     fit-margin-top="0"
     fit-margin-left="0"
     fit-margin-right="0"
     fit-margin-bottom="0" />
  <metadata
     id="metadata7">
    <rdf:RDF>
      <cc:Work
         rdf:about="">
        <dc:format>image/svg+xml</dc:format>
        <dc:type
           rdf:resource="http://purl.org/dc/dcmitype/StillImage" />
        <dc:title></dc:title>
      </cc:Work>
    </rdf:RDF>
  </metadata>
  <g
     inkscape:label="Layer 1"
     inkscape:groupmode="layer"
     id="layer1"
     transform="translate(-50.197763,-88.995921)">
    <g
       id="g3907"
       inkscape:export-filename="/home/shlomif/Docs/programming/Vim/vim-begin/hg/vim-begin/vim-begin-logo/vim-begin.png"
       inkscape:export-xdpi="23.064137"
       inkscape:export-ydpi="23.064137">
      <g
         inkscape:label="Layer 1"
         id="layer1-3"
         transform="translate(-27.780707,-79.688517)">
        <g
           id="g3699"
           transform="matrix(1.532388,0,0,1.3939671,-54.912136,-41.792396)">
          <path
             id="path2836"
             d="M 279.31096,170.90238 107.88239,342.33095 278.59668,513.04524 450.02525,341.61667 Z"
             style="fill:#019833;fill-opacity:1;stroke:#000000;stroke-width:1px;stroke-linecap:butt;stroke-linejoin:miter;stroke-opacity:1"
             inkscape:connector-curvature="0" />
          <path
             id="path2838"
             d="m 278.59668,171.61667 v -15 L 92.168113,343.04524 h 15.714277 z"
             style="fill:#66fe98;fill-opacity:1;stroke:#000000;stroke-width:1px;stroke-linecap:butt;stroke-linejoin:miter;stroke-opacity:1"
             inkscape:connector-curvature="0" />
          <path
             style="fill:#45fe02;fill-opacity:1;stroke:#000000;stroke-width:1px;stroke-linecap:butt;stroke-linejoin:miter;stroke-opacity:1"
             d="m 278.16811,171.61667 v -15 L 464.59668,343.04524 H 448.8824 Z"
             id="path2840"
             inkscape:connector-curvature="0" />
          <path
             style="fill:#017d17;fill-opacity:1;stroke:#000000;stroke-width:1px;stroke-linecap:butt;stroke-linejoin:miter;stroke-opacity:1"
             d="m 278.59668,514.04524 v 15 L 92.168113,342.61667 h 15.714277 z"
             id="path2842"
             inkscape:connector-curvature="0" />
          <path
             id="path3650"
             d="m 126.75373,175.54978 h 120.20816 l 7.3236,7.3236 v 22.4759 l -5.80837,7.07106 H 235.34513 V 324.0422 L 348.48222,212.42034 H 329.7944 l -6.566,-7.07106 v -23.73859 l 6.06092,-5.55584 H 451.0127 l 6.06092,6.06092 v 22.22335 L 181.80705,486.67676 h -31.31473 l -9.06418,-5.2332 V 211.41019 h -15.17948 l -5.55584,-5.55584 v -23.73858 z"
             style="fill:none;stroke:#000000;stroke-width:20;stroke-linecap:butt;stroke-linejoin:miter;stroke-miterlimit:4;stroke-dasharray:none;stroke-opacity:1"
             inkscape:connector-curvature="0" />
          <path
             id="path2844"
             d="m 278.16811,514.04524 v 15 L 464.59668,342.61667 H 448.8824 Z"
             style="fill:#005d04;fill-opacity:1;stroke:#000000;stroke-width:1px;stroke-linecap:butt;stroke-linejoin:miter;stroke-opacity:1"
             inkscape:connector-curvature="0" />
          <path
             style="fill:none;stroke:#000000;stroke-width:6;stroke-linecap:butt;stroke-linejoin:miter;stroke-miterlimit:4;stroke-dasharray:none;stroke-opacity:1"
             d="M 278.09366,155.23389 90.963893,342.36366 277.31396,528.71373 464.44373,341.58396 Z"
             id="path2846"
             inkscape:connector-curvature="0" />
          <path
             id="path3640"
             d="m 248.23953,186.97381 6.78571,-3.57143 -6.96428,-6.96429 h -121.25 l -6.16072,6.16072 v 23.30357 l 6.83036,6.83035 3.25893,-6.83035 -4.28571,-4.28572 v -16.42857 l 3.21428,-2.85714 h 115.71429 z"
             style="fill:#fefefe;fill-opacity:1;stroke:#000000;stroke-width:1px;stroke-linecap:butt;stroke-linejoin:miter;stroke-opacity:1"
             inkscape:connector-curvature="0" />
          <path
             transform="translate(-494.97475,-187.88837)"
             d="m 828.9375,369.5 -4.28125,4.28125 V 389.5 l 3.75,3.75 h 19.8125 v 15.1875 L 717.15625,541.28125 V 393.4375 h 21.78125 l 4.46875,-4.46875 V 373.0625 l -4.125,-3.1875 h -114.625 l -3.75,3.75 v 16.25 l 3.8125,3.8125 h 19.9375 v 272.25 l 3.75,3.75 H 671.0625 L 945.71875,386.28125 v -12.5 L 941.4375,369.5 Z"
             id="path3632"
             style="fill:none;stroke:#000000;stroke-width:1px;stroke-linecap:butt;stroke-linejoin:miter;stroke-opacity:1"
             xlink:href="#path3630"
             inkscape:original="M 828.9375 369.5 L 824.65625 373.78125 L 824.65625 389.5 L 828.40625 393.25 L 848.21875 393.25 L 848.21875 408.4375 L 717.15625 541.28125 L 717.15625 393.4375 L 738.9375 393.4375 L 743.40625 388.96875 L 743.40625 373.0625 L 739.28125 369.875 L 624.65625 369.875 L 620.90625 373.625 L 620.90625 389.875 L 624.71875 393.6875 L 644.65625 393.6875 L 644.65625 665.9375 L 648.40625 669.6875 L 671.0625 669.6875 L 945.71875 386.28125 L 945.71875 373.78125 L 941.4375 369.5 L 828.9375 369.5 z "
             inkscape:radius="0"
             sodipodi:type="inkscape:offset"
             inkscape:href="#path3630" />
          <path
             id="path3646"
             d="m 149.48217,205.34928 v 272.74118 l 3.53553,4.04061 -2.77258,5.28409 -7.83402,-7.80947 V 212.42034 Z"
             style="fill:#fefefe;fill-opacity:1;stroke:#000000;stroke-width:1px;stroke-linecap:butt;stroke-linejoin:miter;stroke-opacity:1"
             inkscape:connector-curvature="0"
             sodipodi:nodetypes="ccccccc" />
          <path
             id="path3644"
             d="m 129.89337,205.34928 -2.02031,6.56599 h 14.64722 l 8.08122,-6.56599 z"
             style="fill:#808080;fill-opacity:1;stroke:#000000;stroke-width:1px;stroke-linecap:butt;stroke-linejoin:miter;stroke-opacity:1"
             inkscape:connector-curvature="0" />
          <path
             sodipodi:nodetypes="cccccccccccccccccc"
             id="path3638"
             d="m 331.09668,212.72381 3.21428,-6.60714 -4.64286,-4.28572 V 187.1881 l 5.35715,-5.35715 h 111.78571 l 4.28572,5.71429 6.07143,-4.28572 -6.25,-6.25 H 330.73953 l -5.98214,5.98215 v 23.48214 l 6.20536,5.84822 m -97.12053,112.75446 -11.67411,28.32589 131.78571,-132.14285 v -15.71429 z"
             style="fill:#fefefe;fill-opacity:1;stroke:#000000;stroke-width:1px;stroke-linecap:butt;stroke-linejoin:miter;stroke-opacity:1"
             inkscape:connector-curvature="0" />
          <path
             sodipodi:nodetypes="ccccccccccc"
             id="path3642"
             d="m 247.97203,186.15638 5.80838,-3.78807 v 22.98097 l -6.69226,6.69226 h -13.00571 v 113.26335 l -11.8693,28.03174 V 205.34928 h 21.71828 l 4.04061,-3.283 z"
             style="fill:#808080;fill-opacity:1;stroke:#000000;stroke-width:1px;stroke-linecap:butt;stroke-linejoin:miter;stroke-opacity:1"
             inkscape:connector-curvature="0" />
          <path
             transform="translate(-494.97475,-187.88837)"
             d="m 828.9375,369.5 -4.28125,4.28125 V 389.5 l 3.75,3.75 h 19.8125 v 15.1875 L 717.15625,541.28125 V 393.4375 h 21.78125 l 4.46875,-4.46875 V 373.0625 l -4.125,-3.1875 h -114.625 l -3.75,3.75 v 16.25 l 3.8125,3.8125 h 19.9375 v 272.25 l 3.75,3.75 H 671.0625 L 945.71875,386.28125 v -12.5 L 941.4375,369.5 Z"
             inkscape:href="#path3620"
             id="path3622"
             style="fill:#cccccc;fill-opacity:1;stroke:#000000;stroke-width:1px;stroke-linecap:butt;stroke-linejoin:miter;stroke-opacity:1"
             xlink:href="#path3620"
             inkscape:original="M 828.9375 369.5 L 824.65625 373.78125 L 824.65625 389.5 L 828.40625 393.25 L 848.21875 393.25 L 848.21875 408.4375 L 717.15625 541.28125 L 717.15625 393.4375 L 738.9375 393.4375 L 743.40625 388.96875 L 743.40625 373.0625 L 739.28125 369.875 L 624.65625 369.875 L 620.90625 373.625 L 620.90625 389.875 L 624.71875 393.6875 L 644.65625 393.6875 L 644.65625 665.9375 L 648.40625 669.6875 L 671.0625 669.6875 L 945.71875 386.28125 L 945.71875 373.78125 L 941.4375 369.5 L 828.9375 369.5 z "
             inkscape:radius="0"
             sodipodi:type="inkscape:offset" />
          <path
             id="path3636"
             d="m 451.09668,186.25953 6.10004,-3.52187 v 22.09329 L 180.52157,487.55027 H 151.1474 l 2.80642,-5.57646 h 22.5 L 450.73954,198.75953 Z"
             style="fill:#808080;fill-opacity:1;stroke:#000000;stroke-width:1px;stroke-linecap:butt;stroke-linejoin:miter;stroke-opacity:1"
             inkscape:connector-curvature="0"
             sodipodi:nodetypes="ccccccccc" />
          <path
             sodipodi:nodetypes="ccccc"
             id="path3652"
             d="m 353.40671,205.72808 -6.18718,6.43972 h -16.16244 l 3.78807,-6.43972 c 0.12627,0 18.56155,0 18.56155,0 z"
             style="fill:#808080;fill-opacity:1;stroke:#000000;stroke-width:1px;stroke-linecap:butt;stroke-linejoin:miter;stroke-opacity:1"
             inkscape:connector-curvature="0" />
          <g
             transform="translate(-94.974747,-207.88837)"
             id="g3673">
            <path
               sodipodi:type="inkscape:offset"
               inkscape:radius="1.2328869"
               inkscape:original="M 400.03125 561.21875 L 394.71875 565.78125 L 389.40625 580.65625 L 393.46875 584.71875 L 409.875 584.71875 L 414.15625 580.40625 L 418.71875 564.75 L 415.1875 561.21875 L 400.03125 561.21875 z M 369.96875 603.15625 L 367.9375 611.21875 L 379.3125 611.21875 L 354.8125 681.1875 L 389.65625 681.1875 L 391.9375 673.84375 L 382.34375 673.84375 L 406.59375 603.15625 L 369.96875 603.15625 z M 480.84375 603.40625 L 473.25 612 L 460.625 612 L 452.5625 603.65625 L 425.03125 603.65625 L 422.5 611.21875 L 431.59375 611.21875 L 408.09375 680.4375 L 437.40625 680.4375 L 439.65625 673.84375 L 432.84375 673.84375 L 448.25 625.375 L 477.3125 625.375 L 460.125 680.4375 L 488.40625 680.4375 L 490.9375 674.375 L 484.125 674.375 L 499.78125 625.125 L 527.5625 625.125 L 510.125 680.4375 L 541.1875 680.4375 L 543.71875 673.84375 L 535.875 673.84375 L 555.09375 611.46875 L 549.28125 603.65625 L 527.0625 603.65625 L 519.71875 611.71875 L 506.34375 611.71875 L 498.75 603.40625 L 480.84375 603.40625 z "
               style="fill:#cccccc;fill-opacity:1;stroke:#000000;stroke-width:8;stroke-linecap:butt;stroke-linejoin:miter;stroke-miterlimit:10;stroke-dasharray:none;stroke-opacity:1"
               id="path3671"
               d="m 400.03125,559.98633 a 1.2330102,1.2330102 0 0 0 -0.80273,0.29687 l -5.3125,4.5625 a 1.2330102,1.2330102 0 0 0 -0.35743,0.52149 l -5.3125,14.875 a 1.2330102,1.2330102 0 0 0 0.28907,1.28515 l 4.0625,4.0625 a 1.2330102,1.2330102 0 0 0 0.87109,0.36133 H 409.875 a 1.2330102,1.2330102 0 0 0 0.875,-0.36328 l 4.28125,-4.3125 a 1.2330102,1.2330102 0 0 0 0.30859,-0.52344 l 4.5625,-15.65625 a 1.2330102,1.2330102 0 0 0 -0.3125,-1.21679 l -3.53125,-3.53125 a 1.2330102,1.2330102 0 0 0 -0.87109,-0.36133 z m -30.0625,41.9375 a 1.2330102,1.2330102 0 0 0 -1.19531,0.93164 l -2.03125,8.0625 a 1.2330102,1.2330102 0 0 0 1.19531,1.5332 h 9.63672 l -23.92578,68.32813 a 1.2330102,1.2330102 0 0 0 1.16406,1.64062 h 34.84375 a 1.2330102,1.2330102 0 0 0 1.17773,-0.86719 l 2.28125,-7.34375 a 1.2330102,1.2330102 0 0 0 -1.17773,-1.59765 h -7.86719 l 23.68946,-69.05469 a 1.2330102,1.2330102 0 0 0 -1.16602,-1.63281 z m 110.875,0.25 a 1.2330102,1.2330102 0 0 0 -0.92383,0.41601 l -7.22656,8.17774 h -11.54492 l -7.69922,-7.96875 a 1.2330102,1.2330102 0 0 0 -0.88672,-0.375 h -27.53125 a 1.2330102,1.2330102 0 0 0 -1.16992,0.84179 l -2.53125,7.5625 a 1.2330102,1.2330102 0 0 0 1.16992,1.62305 h 7.37305 l -22.94727,67.58985 a 1.2330102,1.2330102 0 0 0 1.16797,1.6289 h 29.3125 a 1.2330102,1.2330102 0 0 0 1.16602,-0.83398 l 2.25,-6.59375 a 1.2330102,1.2330102 0 0 0 -1.16602,-1.63086 h -5.12695 l 14.62304,-46.00391 h 26.48243 l -16.6875,53.46289 a 1.2330102,1.2330102 0 0 0 1.17773,1.59961 h 28.28125 a 1.2330102,1.2330102 0 0 0 1.13867,-0.75781 l 2.53125,-6.0625 a 1.2330102,1.2330102 0 0 0 -1.13867,-1.70703 h -5.12695 l 14.87304,-46.78516 h 25.19727 l -16.93164,53.70899 a 1.2330102,1.2330102 0 0 0 1.17578,1.60351 h 31.0625 a 1.2330102,1.2330102 0 0 0 1.15039,-0.79101 l 2.53125,-6.59375 a 1.2330102,1.2330102 0 0 0 -1.15039,-1.67383 h -6.17383 l 18.72656,-60.7793 a 1.2330102,1.2330102 0 0 0 -0.18945,-1.09961 l -5.8125,-7.8125 a 1.2330102,1.2330102 0 0 0 -0.98828,-0.49609 H 527.0625 a 1.2330102,1.2330102 0 0 0 -0.91211,0.40234 l -6.97656,7.66016 h -12.28711 l -7.22656,-7.91211 A 1.2330102,1.2330102 0 0 0 498.75,602.17383 Z" />
            <path
               d="m 400.03125,561.21875 -5.3125,4.5625 -5.3125,14.875 4.0625,4.0625 H 409.875 l 4.28125,-4.3125 4.5625,-15.65625 -3.53125,-3.53125 z m -30.0625,41.9375 -2.03125,8.0625 h 11.375 l -24.5,69.96875 h 34.84375 l 2.28125,-7.34375 h -9.59375 l 24.25,-70.6875 z m 110.875,0.25 L 473.25,612 h -12.625 l -8.0625,-8.34375 h -27.53125 l -2.53125,7.5625 h 9.09375 l -23.5,69.21875 h 29.3125 l 2.25,-6.59375 h -6.8125 L 448.25,625.375 h 29.0625 l -17.1875,55.0625 h 28.28125 l 2.53125,-6.0625 h -6.8125 l 15.65625,-49.25 h 27.78125 l -17.4375,55.3125 h 31.0625 l 2.53125,-6.59375 H 535.875 l 19.21875,-62.375 -5.8125,-7.8125 H 527.0625 l -7.34375,8.0625 h -13.375 l -7.59375,-8.3125 z"
               id="path3665"
               style="fill:#cccccc;fill-opacity:1;stroke:#000000;stroke-width:1;stroke-linecap:butt;stroke-linejoin:miter;stroke-miterlimit:10;stroke-dasharray:none;stroke-opacity:1"
               inkscape:original="M 400.03125 561.21875 L 394.71875 565.78125 L 389.40625 580.65625 L 393.46875 584.71875 L 409.875 584.71875 L 414.15625 580.40625 L 418.71875 564.75 L 415.1875 561.21875 L 400.03125 561.21875 z M 369.96875 603.15625 L 367.9375 611.21875 L 379.3125 611.21875 L 354.8125 681.1875 L 389.65625 681.1875 L 391.9375 673.84375 L 382.34375 673.84375 L 406.59375 603.15625 L 369.96875 603.15625 z M 480.84375 603.40625 L 473.25 612 L 460.625 612 L 452.5625 603.65625 L 425.03125 603.65625 L 422.5 611.21875 L 431.59375 611.21875 L 408.09375 680.4375 L 437.40625 680.4375 L 439.65625 673.84375 L 432.84375 673.84375 L 448.25 625.375 L 477.3125 625.375 L 460.125 680.4375 L 488.40625 680.4375 L 490.9375 674.375 L 484.125 674.375 L 499.78125 625.125 L 527.5625 625.125 L 510.125 680.4375 L 541.1875 680.4375 L 543.71875 673.84375 L 535.875 673.84375 L 555.09375 611.46875 L 549.28125 603.65625 L 527.0625 603.65625 L 519.71875 611.71875 L 506.34375 611.71875 L 498.75 603.40625 L 480.84375 603.40625 z "
               inkscape:radius="0"
               sodipodi:type="inkscape:offset" />
          </g>
        </g>
      </g>
      <text
         transform="skewX(-15.795601)"
         id="text3116"
         y="755.2193"
         x="274.1217"
         style="font-style:normal;font-variant:normal;font-weight:bold;font-stretch:normal;line-height:0%;font-family:'DejaVu Serif';-inkscape-font-specification:'DejaVu Serif Bold';text-align:start;letter-spacing:0px;word-spacing:0px;writing-mode:lr-tb;text-anchor:start;fill:#000000;fill-opacity:1;stroke:#c62936;stroke-width:3;stroke-linecap:round;stroke-linejoin:round;stroke-miterlimit:4;stroke-dasharray:none;stroke-opacity:1"
         xml:space="preserve"><tspan
           y="755.2193"
           x="274.1217"
           id="tspan3118"
           sodipodi:role="line"
           style="font-size:144px;line-height:1.25">Begin!</tspan></text>
    </g>
  </g>
</svg>
